<svg width="200" height="60" viewBox="0 0 248 61" xmlns="http://www.w3.org/2000/svg">
<path fill-rule="evenodd" clip-rule="evenodd" d="M79.62 14.44V7.06H91.58V1.86H72.82V31H79.62V19.66H89.58V14.44H79.62ZM107.296 15.22C106.656 15.4467 105.876 15.56 104.956 15.56H102.236V6.92H104.956C106.703 6.92 107.99 7.28 108.816 8C109.656 8.72 110.076 9.72 110.076 11C110.076 11.64 109.983 12.24 109.796 12.8C109.61 13.3467 109.31 13.8267 108.896 14.24C108.483 14.6533 107.95 14.98 107.296 15.22ZM113.196 31H119.316L113.116 20.86C112.81 20.3933 112.463 19.9933 112.076 19.66C111.69 19.3133 111.276 19.0267 110.836 18.8C111.783 18.44 112.616 17.98 113.336 17.42C114.07 16.86 114.683 16.2267 115.176 15.52C115.67 14.8 116.043 14.02 116.296 13.18C116.55 12.34 116.676 11.4467 116.676 10.5C116.676 9.26 116.463 8.11333 116.036 7.06C115.61 6.00667 114.923 5.09333 113.976 4.32C113.043 3.54667 111.83 2.94667 110.336 2.52C108.856 2.08 107.063 1.86 104.956 1.86H95.4762V31H102.236V20.22H103.956C104.476 20.22 104.876 20.3067 105.156 20.48C105.436 20.64 105.69 20.9 105.916 21.26L110.756 29.72C111.25 30.5733 112.063 31 113.196 31ZM128.565 13.86V7.06H140.525V1.86H121.765V31H140.525V25.8H128.565V18.86H137.725V13.86H128.565ZM160.155 8.5C160.382 8.34 160.595 8.1 160.795 7.78L162.475 4.64C161.955 4.16 161.362 3.73333 160.695 3.36C160.042 2.97333 159.335 2.64667 158.575 2.38C157.815 2.1 157.008 1.89333 156.155 1.76C155.315 1.61333 154.448 1.54 153.555 1.54C151.955 1.54 150.535 1.78667 149.295 2.28C148.055 2.76 147.008 3.40667 146.155 4.22C145.302 5.03333 144.655 5.96 144.215 7C143.775 8.04 143.555 9.10667 143.555 10.2C143.555 11.56 143.742 12.7067 144.115 13.64C144.488 14.56 144.975 15.3333 145.575 15.96C146.188 16.5733 146.882 17.0733 147.655 17.46C148.428 17.8333 149.222 18.1533 150.035 18.42C150.848 18.6733 151.642 18.9067 152.415 19.12C153.188 19.3333 153.875 19.58 154.475 19.86C155.088 20.14 155.582 20.4933 155.955 20.92C156.328 21.3467 156.515 21.9 156.515 22.58C156.515 23.7533 156.175 24.6133 155.495 25.16C154.815 25.6933 153.862 25.96 152.635 25.96C151.728 25.96 150.942 25.8333 150.275 25.58C149.608 25.3267 149.015 25.0467 148.495 24.74C147.988 24.4333 147.528 24.1533 147.115 23.9C146.715 23.6467 146.315 23.52 145.915 23.52C145.608 23.52 145.322 23.6 145.055 23.76C144.802 23.9067 144.595 24.0933 144.435 24.32L142.435 27.48C143.008 28.0533 143.682 28.5733 144.455 29.04C145.228 29.5067 146.055 29.9133 146.935 30.26C147.815 30.5933 148.722 30.8533 149.655 31.04C150.602 31.2267 151.528 31.32 152.435 31.32C154.088 31.32 155.562 31.0733 156.855 30.58C158.162 30.0733 159.255 29.3867 160.135 28.52C161.028 27.64 161.708 26.6133 162.175 25.44C162.642 24.2667 162.875 23.0067 162.875 21.66C162.875 20.4467 162.688 19.4133 162.315 18.56C161.942 17.6933 161.448 16.96 160.835 16.36C160.235 15.76 159.542 15.2667 158.755 14.88C157.982 14.4933 157.188 14.16 156.375 13.88C155.562 13.5867 154.762 13.3267 153.975 13.1C153.202 12.86 152.508 12.6 151.895 12.32C151.295 12.04 150.808 11.7067 150.435 11.32C150.062 10.9333 149.875 10.4467 149.875 9.86C149.875 8.94 150.182 8.21333 150.795 7.68C151.422 7.13334 152.368 6.86 153.635 6.86C154.368 6.86 155.022 6.96 155.595 7.16C156.168 7.34667 156.675 7.56 157.115 7.8C157.568 8.04 157.968 8.26 158.315 8.46C158.675 8.64667 159.008 8.74 159.315 8.74C159.662 8.74 159.942 8.66 160.155 8.5ZM192.283 31V1.86H185.483V14.04H173.643V1.86H166.843V31H173.643V18.68H185.483V31H192.283ZM216.697 23.04C217.244 21.1733 217.517 18.9667 217.517 16.42C217.517 13.8733 217.244 11.6667 216.697 9.8C216.151 7.93333 215.391 6.38667 214.417 5.16C213.457 3.93333 212.311 3.02667 210.977 2.44C209.657 1.84 208.224 1.54 206.677 1.54C205.131 1.54 203.697 1.84 202.377 2.44C201.071 3.02667 199.937 3.93333 198.977 5.16C198.017 6.38667 197.264 7.93333 196.717 9.8C196.184 11.6667 195.917 13.8733 195.917 16.42C195.917 18.9667 196.184 21.1733 196.717 23.04C197.264 24.9067 198.017 26.4533 198.977 27.68C199.937 28.9067 201.071 29.82 202.377 30.42C203.697 31.02 205.131 31.32 206.677 31.32C208.224 31.32 209.657 31.02 210.977 30.42C212.311 29.82 213.457 28.9067 214.417 27.68C215.391 26.4533 216.151 24.9067 216.697 23.04ZM210.737 11.48C210.991 12.76 211.117 14.4067 211.117 16.42C211.117 18.4467 210.991 20.1 210.737 21.38C210.484 22.66 210.144 23.6733 209.717 24.42C209.304 25.1533 208.831 25.66 208.297 25.94C207.764 26.2067 207.224 26.34 206.677 26.34C206.131 26.34 205.591 26.2067 205.057 25.94C204.537 25.66 204.071 25.1533 203.657 24.42C203.257 23.6733 202.931 22.66 202.677 21.38C202.437 20.1 202.317 18.4467 202.317 16.42C202.317 14.4067 202.437 12.76 202.677 11.48C202.931 10.1867 203.257 9.17333 203.657 8.44C204.071 7.70667 204.537 7.20667 205.057 6.94C205.591 6.66 206.131 6.52 206.677 6.52C207.224 6.52 207.764 6.66 208.297 6.94C208.831 7.20667 209.304 7.70667 209.717 8.44C210.144 9.17333 210.484 10.1867 210.737 11.48ZM228.98 13.66H227.9V1.86H221.14V31H227.9V18.6H229.54C230.167 18.6 230.66 18.68 231.02 18.84C231.394 18.9867 231.7 19.2467 231.94 19.62L238.54 29.76C238.674 29.96 238.814 30.14 238.96 30.3C239.107 30.4467 239.28 30.5733 239.48 30.68C239.68 30.7867 239.914 30.8667 240.18 30.92C240.46 30.9733 240.794 31 241.18 31H247.22L238.42 17.48C238.06 16.9467 237.674 16.5133 237.26 16.18C236.847 15.8467 236.387 15.5867 235.88 15.4C236.587 15.04 237.247 14.4533 237.86 13.64L246.5 1.86H240.62C239.954 1.86 239.394 1.96 238.94 2.16C238.5 2.34667 238.087 2.69333 237.7 3.2L231.14 12.72C230.7 13.3467 229.98 13.66 228.98 13.66ZM97.844 54.864C98.268 53.776 98.48 52.596 98.48 51.324C98.48 50.476 98.384 49.668 98.192 48.9C98.008 48.132 97.736 47.42 97.376 46.764C97.016 46.108 96.576 45.516 96.056 44.988C95.544 44.452 94.964 44 94.316 43.632C93.668 43.256 92.956 42.968 92.18 42.768C91.404 42.56 90.576 42.456 89.696 42.456C88.384 42.456 87.188 42.68 86.108 43.128C85.028 43.568 84.1 44.184 83.324 44.976C82.556 45.768 81.96 46.708 81.536 47.796C81.112 48.876 80.9 50.052 80.9 51.324C80.9 52.596 81.112 53.776 81.536 54.864C81.96 55.944 82.556 56.88 83.324 57.672C84.1 58.464 85.028 59.084 86.108 59.532C87.188 59.972 88.384 60.192 89.696 60.192C91.016 60.192 92.216 59.972 93.296 59.532C94.376 59.084 95.3 58.464 96.068 57.672C96.836 56.88 97.428 55.944 97.844 54.864ZM94.796 48.768C95.052 49.52 95.18 50.372 95.18 51.324C95.18 52.276 95.052 53.132 94.796 53.892C94.54 54.644 94.176 55.284 93.704 55.812C93.232 56.332 92.656 56.732 91.976 57.012C91.304 57.292 90.544 57.432 89.696 57.432C88.848 57.432 88.084 57.292 87.404 57.012C86.732 56.732 86.156 56.332 85.676 55.812C85.204 55.284 84.84 54.644 84.584 53.892C84.328 53.132 84.2 52.276 84.2 51.324C84.2 50.372 84.328 49.52 84.584 48.768C84.84 48.008 85.204 47.364 85.676 46.836C86.156 46.308 86.732 45.904 87.404 45.624C88.084 45.344 88.848 45.204 89.696 45.204C90.544 45.204 91.304 45.344 91.976 45.624C92.656 45.904 93.232 46.308 93.704 46.836C94.176 47.364 94.54 48.008 94.796 48.768ZM104.188 48.516C103.916 48.724 103.656 48.952 103.408 49.2L103.204 48.228C103.084 47.868 102.832 47.688 102.448 47.688H100.636V60H103.6V51.096C104 50.696 104.424 50.38 104.872 50.148C105.32 49.916 105.8 49.8 106.312 49.8C107.016 49.8 107.54 50.008 107.884 50.424C108.228 50.832 108.4 51.412 108.4 52.164V60H111.364V52.164C111.364 51.476 111.272 50.848 111.088 50.28C110.912 49.704 110.648 49.212 110.296 48.804C109.952 48.388 109.52 48.068 109 47.844C108.48 47.612 107.884 47.496 107.212 47.496C106.796 47.496 106.412 47.54 106.06 47.628C105.708 47.708 105.376 47.824 105.064 47.976C104.76 48.12 104.468 48.3 104.188 48.516ZM117.183 60V42.168H114.219V60H117.183ZM123.208 60V47.688H120.232V60H123.208ZM123.46 44.82C123.564 44.596 123.616 44.356 123.616 44.1C123.616 43.836 123.564 43.588 123.46 43.356C123.356 43.124 123.216 42.924 123.04 42.756C122.872 42.588 122.672 42.456 122.44 42.36C122.208 42.256 121.96 42.204 121.696 42.204C121.44 42.204 121.196 42.256 120.964 42.36C120.74 42.456 120.544 42.588 120.376 42.756C120.208 42.924 120.072 43.124 119.968 43.356C119.872 43.588 119.824 43.836 119.824 44.1C119.824 44.356 119.872 44.596 119.968 44.82C120.072 45.044 120.208 45.24 120.376 45.408C120.544 45.576 120.74 45.712 120.964 45.816C121.196 45.912 121.44 45.96 121.696 45.96C121.96 45.96 122.208 45.912 122.44 45.816C122.672 45.712 122.872 45.576 123.04 45.408C123.216 45.24 123.356 45.044 123.46 44.82ZM129.782 48.516C129.51 48.724 129.25 48.952 129.002 49.2L128.798 48.228C128.678 47.868 128.426 47.688 128.042 47.688H126.23V60H129.194V51.096C129.594 50.696 130.018 50.38 130.466 50.148C130.914 49.916 131.394 49.8 131.906 49.8C132.61 49.8 133.134 50.008 133.478 50.424C133.822 50.832 133.994 51.412 133.994 52.164V60H136.958V52.164C136.958 51.476 136.866 50.848 136.682 50.28C136.506 49.704 136.242 49.212 135.89 48.804C135.546 48.388 135.114 48.068 134.594 47.844C134.074 47.612 133.478 47.496 132.806 47.496C132.39 47.496 132.006 47.54 131.654 47.628C131.302 47.708 130.97 47.824 130.658 47.976C130.354 48.12 130.062 48.3 129.782 48.516ZM147.541 51.348C147.653 51.684 147.709 52.044 147.709 52.428H142.117C142.253 51.532 142.564 50.84 143.052 50.352C143.549 49.864 144.225 49.62 145.08 49.62C145.521 49.62 145.905 49.696 146.232 49.848C146.568 49.992 146.844 50.192 147.061 50.448C147.276 50.704 147.437 51.004 147.541 51.348ZM142.393 55.86C142.216 55.396 142.104 54.848 142.057 54.216H149.676C149.949 54.216 150.132 54.14 150.229 53.988C150.325 53.828 150.372 53.524 150.372 53.076C150.372 52.188 150.237 51.4 149.965 50.712C149.701 50.016 149.332 49.432 148.861 48.96C148.389 48.48 147.825 48.116 147.169 47.868C146.512 47.62 145.797 47.496 145.021 47.496C144.101 47.496 143.272 47.656 142.536 47.976C141.809 48.296 141.188 48.732 140.676 49.284C140.173 49.828 139.785 50.472 139.512 51.216C139.241 51.952 139.104 52.74 139.104 53.58C139.104 54.66 139.26 55.612 139.573 56.436C139.884 57.252 140.312 57.94 140.856 58.5C141.4 59.052 142.04 59.472 142.776 59.76C143.512 60.04 144.309 60.18 145.164 60.18C145.596 60.18 146.04 60.148 146.496 60.084C146.961 60.02 147.412 59.912 147.853 59.76C148.3 59.6 148.729 59.392 149.136 59.136C149.545 58.872 149.912 58.548 150.241 58.164L149.389 57.084C149.269 56.9 149.085 56.808 148.837 56.808C148.653 56.808 148.461 56.864 148.26 56.976C148.069 57.088 147.84 57.212 147.576 57.348C147.321 57.484 147.017 57.608 146.664 57.72C146.321 57.832 145.909 57.888 145.428 57.888C144.949 57.888 144.508 57.816 144.108 57.672C143.716 57.52 143.377 57.296 143.089 57C142.8 56.696 142.568 56.316 142.393 55.86ZM158.717 51.516H152.501V53.988H158.717V51.516ZM177.99 60H180.834V42.648H178.398C178.254 42.648 178.13 42.652 178.026 42.66C177.922 42.668 177.826 42.688 177.738 42.72C177.658 42.752 177.582 42.804 177.51 42.876C177.438 42.948 177.37 43.044 177.306 43.164L172.182 52.776C172.046 53.032 171.918 53.3 171.798 53.58C171.678 53.852 171.562 54.136 171.45 54.432C171.338 54.144 171.222 53.864 171.102 53.592C170.99 53.32 170.866 53.056 170.73 52.8L165.534 43.164C165.47 43.044 165.402 42.948 165.33 42.876C165.266 42.804 165.19 42.752 165.102 42.72C165.022 42.688 164.93 42.668 164.826 42.66C164.722 42.652 164.598 42.648 164.454 42.648H162.018V60H164.862V48.792C164.862 48.576 164.854 48.34 164.838 48.084C164.822 47.828 164.802 47.568 164.778 47.304L170.082 57.192C170.33 57.664 170.71 57.9 171.222 57.9H171.678C172.19 57.9 172.57 57.664 172.818 57.192L178.062 47.34C178.014 47.86 177.99 48.344 177.99 48.792V60ZM188.277 54.972C188.861 54.86 189.581 54.784 190.437 54.744V56.82C190.013 57.268 189.577 57.604 189.129 57.828C188.689 58.044 188.165 58.152 187.557 58.152C187.061 58.152 186.657 58.04 186.345 57.816C186.041 57.592 185.889 57.22 185.889 56.7C185.889 56.436 185.965 56.192 186.117 55.968C186.269 55.744 186.521 55.548 186.873 55.38C187.225 55.212 187.693 55.076 188.277 54.972ZM188.757 47.46C186.765 47.46 185.061 48.108 183.645 49.404L184.173 50.352C184.261 50.496 184.377 50.624 184.521 50.736C184.665 50.84 184.841 50.892 185.049 50.892C185.289 50.892 185.505 50.836 185.697 50.724C185.897 50.612 186.117 50.488 186.357 50.352C186.597 50.208 186.873 50.08 187.185 49.968C187.505 49.856 187.905 49.8 188.385 49.8C189.049 49.8 189.557 50 189.909 50.4C190.261 50.792 190.437 51.4 190.437 52.224V52.944C189.501 52.968 188.669 53.04 187.941 53.16C187.213 53.272 186.573 53.42 186.021 53.604C185.477 53.788 185.017 54.004 184.641 54.252C184.265 54.5 183.957 54.764 183.717 55.044C183.485 55.324 183.317 55.62 183.213 55.932C183.109 56.236 183.057 56.544 183.057 56.856C183.057 57.408 183.145 57.892 183.321 58.308C183.497 58.724 183.745 59.072 184.065 59.352C184.385 59.632 184.765 59.844 185.205 59.988C185.645 60.124 186.125 60.192 186.645 60.192C187.085 60.192 187.485 60.152 187.845 60.072C188.213 60 188.557 59.892 188.877 59.748C189.197 59.604 189.505 59.428 189.801 59.22C190.097 59.004 190.401 58.756 190.713 58.476L190.977 59.364C191.065 59.62 191.185 59.792 191.337 59.88C191.489 59.96 191.705 60 191.985 60H193.329V52.224C193.329 51.528 193.225 50.888 193.017 50.304C192.817 49.72 192.521 49.22 192.129 48.804C191.737 48.38 191.257 48.052 190.689 47.82C190.121 47.58 189.477 47.46 188.757 47.46ZM200.284 48.096C199.756 48.512 199.3 49.088 198.916 49.824L198.736 48.432C198.696 48.152 198.616 47.96 198.496 47.856C198.376 47.744 198.164 47.688 197.86 47.688H196.12V60H199.084V52.416C199.22 52.088 199.364 51.796 199.516 51.54C199.676 51.284 199.856 51.068 200.056 50.892C200.264 50.708 200.496 50.568 200.752 50.472C201.008 50.376 201.3 50.328 201.628 50.328C201.852 50.328 202.08 50.348 202.312 50.388C202.552 50.428 202.732 50.448 202.852 50.448C202.98 50.448 203.08 50.42 203.152 50.364C203.232 50.3 203.292 50.196 203.332 50.052L203.524 47.832C203.18 47.584 202.724 47.46 202.156 47.46C201.436 47.46 200.812 47.672 200.284 48.096ZM208.037 52.38V42.168H205.073V60H208.037V54.36H208.709C208.949 54.36 209.129 54.388 209.249 54.444C209.369 54.5 209.485 54.62 209.597 54.804L212.741 59.472C212.853 59.672 212.993 59.812 213.161 59.892C213.329 59.964 213.529 60 213.761 60H216.437L212.333 54.024C212.213 53.84 212.085 53.668 211.949 53.508C211.821 53.348 211.673 53.208 211.505 53.088C211.825 52.896 212.121 52.62 212.393 52.26L216.221 47.688H213.509C213.261 47.688 213.057 47.732 212.897 47.82C212.745 47.908 212.605 48.036 212.477 48.204L209.417 51.984C209.297 52.144 209.177 52.252 209.057 52.308C208.945 52.356 208.789 52.38 208.589 52.38H208.037ZM225.025 51.348C225.137 51.684 225.193 52.044 225.193 52.428H219.601C219.737 51.532 220.049 50.84 220.537 50.352C221.033 49.864 221.709 49.62 222.565 49.62C223.005 49.62 223.389 49.696 223.717 49.848C224.053 49.992 224.329 50.192 224.545 50.448C224.761 50.704 224.921 51.004 225.025 51.348ZM219.877 55.86C219.701 55.396 219.589 54.848 219.541 54.216H227.161C227.433 54.216 227.617 54.14 227.713 53.988C227.809 53.828 227.857 53.524 227.857 53.076C227.857 52.188 227.721 51.4 227.449 50.712C227.185 50.016 226.817 49.432 226.345 48.96C225.873 48.48 225.309 48.116 224.653 47.868C223.997 47.62 223.281 47.496 222.505 47.496C221.585 47.496 220.757 47.656 220.021 47.976C219.293 48.296 218.673 48.732 218.161 49.284C217.657 49.828 217.269 50.472 216.997 51.216C216.725 51.952 216.589 52.74 216.589 53.58C216.589 54.66 216.745 55.612 217.057 56.436C217.369 57.252 217.797 57.94 218.341 58.5C218.885 59.052 219.525 59.472 220.261 59.76C220.997 60.04 221.793 60.18 222.649 60.18C223.081 60.18 223.525 60.148 223.981 60.084C224.445 60.02 224.897 59.912 225.337 59.76C225.785 59.6 226.213 59.392 226.621 59.136C227.029 58.872 227.397 58.548 227.725 58.164L226.873 57.084C226.753 56.9 226.569 56.808 226.321 56.808C226.137 56.808 225.945 56.864 225.745 56.976C225.553 57.088 225.325 57.212 225.061 57.348C224.805 57.484 224.501 57.608 224.149 57.72C223.805 57.832 223.393 57.888 222.913 57.888C222.433 57.888 221.993 57.816 221.593 57.672C221.201 57.52 220.861 57.296 220.573 57C220.285 56.696 220.053 56.316 219.877 55.86ZM231.596 59.292C232.172 59.892 232.996 60.192 234.068 60.192C234.668 60.192 235.248 60.1 235.808 59.916C236.368 59.732 236.864 59.46 237.296 59.1L236.408 57.66C236.344 57.572 236.284 57.508 236.228 57.468C236.172 57.42 236.1 57.396 236.012 57.396C235.94 57.396 235.868 57.42 235.796 57.468C235.724 57.508 235.64 57.552 235.544 57.6C235.456 57.648 235.348 57.696 235.22 57.744C235.1 57.784 234.948 57.804 234.764 57.804C234.436 57.804 234.176 57.696 233.984 57.48C233.8 57.264 233.708 56.964 233.708 56.58V49.908H236.996V47.796H233.708V43.92H232.172C231.996 43.92 231.852 43.964 231.74 44.052C231.628 44.14 231.552 44.264 231.512 44.424L230.888 47.784L228.908 48.108V49.284C228.908 49.492 228.964 49.648 229.076 49.752C229.188 49.856 229.324 49.908 229.484 49.908H230.744V56.784C230.744 57.848 231.028 58.684 231.596 59.292Z" fill="white"/>
<g clip-path="url(#clip0_2:57)">
<path opacity="0.2" d="M54.6484 59.0669C54.6484 58.5552 43.1741 58.1338 29.0368 58.1338C14.8994 58.1338 3.42517 58.5552 3.42517 59.0669C3.42517 59.5786 14.8994 60 29.0368 60C43.207 60 54.6484 59.5786 54.6484 59.0669Z" fill="#5D5D5D"/>
<path d="M29.3984 11.8098C40.5439 11.8098 49.5852 20.0873 49.5852 30.2913V48.7727H29.3984C18.2529 48.7727 9.21161 40.4952 9.21161 30.2913V11.8098H29.3984Z" fill="white"/>
<path opacity="0.3" d="M46.692 20.7797C45.0152 22.5556 43.996 24.8733 43.996 27.4017C43.996 31.1642 46.2317 34.4451 49.5523 36.221V30.2913C49.5523 26.8298 48.5331 23.579 46.692 20.7797Z" fill="white"/>
<path d="M38.7685 13.9469C35.6122 15.6024 33.5081 18.7027 33.5081 22.2846C33.5081 27.5822 38.2096 31.8866 43.996 31.8866C46.0344 31.8866 47.9413 31.3448 49.5523 30.4116V30.2913C49.5523 23.1876 45.1796 17.0171 38.7685 13.9469Z" fill="white"/>
<path opacity="0.5" d="M22.9215 15.3909C17.7269 15.3909 12.9596 17.0464 9.21161 19.8457V30.3205C9.21161 40.5245 18.2529 48.802 29.3984 48.802H39.0644C42.5823 45.2502 44.7193 40.5546 44.7193 35.3773C44.7193 24.3306 34.9547 15.3909 22.9215 15.3909Z" fill="#F8F6EC"/>
<path d="M49.5523 48.7426L29.3984 48.7727C18.2529 48.7727 9.21161 40.4951 9.21161 30.2912V11.8398L49.5523 48.7426Z" fill="white"/>
<path opacity="0.3" d="M12.335 18.4318C12.335 32.4584 24.7627 43.8062 40.0507 43.8062C41.3658 43.8062 42.648 43.7159 43.8974 43.5654L12.598 14.9402C12.4336 16.084 12.335 17.2579 12.335 18.4318Z" fill="white"/>
<path opacity="0.3" d="M49.5523 48.7727L9.37601 11.9904C14.1104 18.4619 19.568 25.0237 25.1243 30.4417C29.4642 34.6557 41.9905 44.077 49.5523 48.7727Z" fill="white"/>
<path opacity="0.3" d="M22.3955 23.8799L9.21161 11.8398V30.3213C9.21161 38.4784 14.9981 45.4014 22.9873 47.8396C19.568 44.679 17.4639 40.3446 17.4639 35.5888C17.4639 31.0738 19.3379 26.9802 22.3955 23.8799Z" fill="white"/>
<path opacity="0.3" d="M40.3466 40.3447C36.9274 44.1674 31.7327 46.6356 25.9134 46.6356C22.0338 46.6356 18.4173 45.552 15.4254 43.6858C19.042 46.8464 23.9407 48.8029 29.3655 48.8029H49.5523V48.7728L40.3466 40.3447Z" fill="white"/>
<path opacity="0.3" d="M10.3952 22.8866C10.3952 19.9067 10.9541 17.0171 12.0062 14.3683L9.21161 11.8398V30.3213C9.21161 40.5252 18.2529 48.8028 29.3984 48.8028H49.5852V48.7727L47.5797 46.9366C44.6536 47.8998 41.5302 48.4115 38.2425 48.4115C22.8558 48.3814 10.3952 36.9734 10.3952 22.8866Z" fill="#F8F6EC"/>
<path d="M49.2235 52.3546C50.6372 51.9934 52.1167 52.776 52.4784 54.0703C52.8729 55.3646 52.0181 56.7191 50.5715 57.0502C49.1578 57.4114 47.6783 56.6288 47.3166 55.3345C46.955 54.0402 47.8098 52.7158 49.2235 52.3546ZM48.6975 50.5185C46.1659 51.1506 44.6535 53.4984 45.344 55.8161C46.0015 58.1338 48.5988 59.5184 51.1304 58.8863C53.662 58.2542 55.1743 55.8763 54.4839 53.5887C53.8264 51.271 51.229 49.9165 48.6975 50.5185Z" fill="white"/>
<path opacity="0.5" d="M52.0506 56.1768C51.6889 56.5982 51.1958 56.9294 50.604 57.0799C49.1902 57.4411 47.7108 56.6584 47.3491 55.3641C47.0861 54.4009 47.4477 53.4377 48.2368 52.8658C47.8423 52.3541 47.5135 51.7822 47.1847 51.2103C45.6066 52.2337 44.8175 54.0698 45.3436 55.8758C46.0011 58.1936 48.5984 59.5782 51.13 58.9461C52.3136 58.6451 53.267 57.9829 53.8917 57.1099C53.267 56.8089 52.6424 56.5079 52.0506 56.1768Z" fill="white"/>
<path d="M10.1646 52.3546C11.5783 52.0235 13.0578 52.8061 13.4195 54.1004C13.7811 55.3947 12.9263 56.7492 11.5126 57.0803C10.0989 57.4114 8.61937 56.6288 8.25772 55.3345C7.89606 54.0402 8.75088 52.6857 10.1646 52.3546ZM9.63857 50.5185C7.107 51.1205 5.59464 53.4984 6.25219 55.8161C6.90974 58.1338 9.50706 59.5184 12.0386 58.9164C14.5702 58.3144 16.0826 55.9365 15.4579 53.6188C14.7675 51.3011 12.1701 49.9165 9.63857 50.5185Z" fill="white"/>
<path opacity="0.5" d="M12.9596 56.207C12.598 56.6284 12.1048 56.9595 11.513 57.0799C10.0993 57.411 8.61978 56.6284 8.25813 55.3341C7.99511 54.3709 8.38964 53.4077 9.14582 52.8358C8.75129 52.3241 8.42252 51.7522 8.12662 51.1803C6.5485 52.1736 5.72656 54.0097 6.2526 55.8157C6.91015 58.1334 9.50747 59.518 12.039 58.916C13.2226 58.6451 14.209 57.9528 14.8008 57.0799C14.1432 56.8391 13.5514 56.5381 12.9596 56.207Z" fill="white"/>
<path d="M10.4938 10.5455C9.86915 10.5455 9.34311 10.0639 9.34311 9.49205C9.34311 7.02384 8.58693 5.15763 7.14031 3.92353C4.80601 1.90682 1.28812 2.11752 1.25524 2.11752C0.630565 2.17772 0.071647 1.72622 0.00589199 1.15432C-0.0598631 0.582418 0.4333 0.0707165 1.05797 0.0105163C1.25524 0.0105163 5.59507 -0.290485 8.68556 2.32822C10.6582 3.98373 11.6445 6.39174 11.6445 9.46194C11.6445 10.0639 11.1514 10.5455 10.4938 10.5455Z" fill="white"/>
</g>
<defs>
<clipPath id="clip0_2:57">
<rect width="55" height="60" fill="white"/>
</clipPath>
</defs>
</svg>
